<svg xmlns="http://www.w3.org/2000/svg" width="32" height="32" viewBox="0 0 32 32" fill="none">
  <!-- Shield body — deep navy fill -->
  <path d="M16 2L27 6.5V14C27 21.5 22 27 16 29C10 27 5 21.5 5 14V6.5L16 2Z" fill="#0A0F1C" stroke="#38BDF8" stroke-width="1.2" stroke-linejoin="round"/>
  <!-- Inner shield layer -->
  <path d="M16 4.5L24.5 8V14C24.5 20 20.5 24.8 16 26.5C11.5 24.8 7.5 20 7.5 14V8L16 4.5Z" fill="#111827" stroke="#38BDF8" stroke-width="0.4" stroke-linejoin="round" opacity="0.5"/>
  <!-- Outer scan ring -->
  <circle cx="16" cy="14.5" r="7" stroke="#7DD3FC" stroke-width="0.7" opacity="0.30" stroke-dasharray="2.5 2"/>
  <!-- Inner scan ring -->
  <circle cx="16" cy="14.5" r="4.2" stroke="#7DD3FC" stroke-width="0.5" opacity="0.18" stroke-dasharray="1.5 1.5"/>
  <!-- Radar sweep line -->
  <line x1="16" y1="14.5" x2="22" y2="10" stroke="#38BDF8" stroke-width="0.9" opacity="0.5" stroke-linecap="round"/>
  <!-- Center glow layers -->
  <circle cx="16" cy="14.5" r="2.8" fill="#38BDF8" opacity="0.12"/>
  <circle cx="16" cy="14.5" r="1.8" fill="#38BDF8" opacity="0.30"/>
  <circle cx="16" cy="14.5" r="1.1" fill="#7DD3FC"/>
  <!-- Detection nodes -->
  <circle cx="11" cy="11" r="1.2" fill="#2DD4BF" opacity="0.6"/>
  <circle cx="21" cy="11" r="1.2" fill="#38BDF8" opacity="0.6"/>
  <circle cx="11.5" cy="19" r="1" fill="#38BDF8" opacity="0.35"/>
  <circle cx="20.5" cy="19" r="1" fill="#2DD4BF" opacity="0.35"/>
  <!-- Connection lines to center -->
  <line x1="11" y1="11" x2="16" y2="14.5" stroke="#7DD3FC" stroke-width="0.5" opacity="0.25"/>
  <line x1="21" y1="11" x2="16" y2="14.5" stroke="#7DD3FC" stroke-width="0.5" opacity="0.25"/>
  <line x1="11.5" y1="19" x2="16" y2="14.5" stroke="#7DD3FC" stroke-width="0.4" opacity="0.18"/>
  <line x1="20.5" y1="19" x2="16" y2="14.5" stroke="#7DD3FC" stroke-width="0.4" opacity="0.18"/>
</svg>
